<svg width="345" height="44" viewBox="0 0 345 44" fill="none" xmlns="http://www.w3.org/2000/svg">
<path d="M57.6704 35.125H50L58.642 8.94318H68.3579L77 35.125H69.3295L63.6023 16.1534H63.3977L57.6704 35.125ZM56.2386 24.7955H70.6591V30.1136H56.2386V24.7955ZM87.4861 35.483C85.3895 35.483 83.5827 35.0824 82.0657 34.2812C80.5572 33.4716 79.3938 32.3125 78.5756 30.804C77.766 29.2869 77.3611 27.4716 77.3611 25.358C77.3611 23.3295 77.7702 21.5568 78.5884 20.0398C79.4066 18.5227 80.5614 17.3423 82.0529 16.4986C83.5444 15.6548 85.3043 15.233 87.3327 15.233C88.8157 15.233 90.158 15.4631 91.3597 15.9233C92.5614 16.3835 93.5884 17.0526 94.4407 17.9304C95.293 18.7997 95.9492 19.8565 96.4094 21.1009C96.8697 22.3452 97.0998 23.7472 97.0998 25.3068V26.9432H79.56V23.0568H90.6055C90.5969 22.4943 90.452 22 90.1708 21.5739C89.8981 21.1392 89.5273 20.8026 89.0586 20.5639C88.5983 20.3168 88.0742 20.1932 87.4861 20.1932C86.9151 20.1932 86.391 20.3168 85.9137 20.5639C85.4364 20.8026 85.0529 21.1349 84.7631 21.5611C84.4819 21.9872 84.3327 22.4858 84.3157 23.0568V27.25C84.3157 27.8807 84.4478 28.4432 84.712 28.9375C84.9762 29.4318 85.3555 29.8196 85.8498 30.1009C86.3441 30.3821 86.9407 30.5227 87.6395 30.5227C88.1253 30.5227 88.5685 30.4545 88.9691 30.3182C89.3782 30.1818 89.7276 29.9858 90.0174 29.7301C90.3072 29.4659 90.5202 29.1506 90.6566 28.7841H97.0998C96.8782 30.1477 96.354 31.3324 95.5273 32.3381C94.7006 33.3352 93.6055 34.1108 92.2418 34.6648C90.8867 35.2102 89.3015 35.483 87.4861 35.483ZM117.928 21.8807H111.434C111.4 21.4801 111.259 21.1349 111.012 20.8452C110.765 20.5554 110.445 20.3338 110.053 20.1804C109.67 20.0185 109.244 19.9375 108.775 19.9375C108.17 19.9375 107.65 20.0483 107.215 20.2699C106.781 20.4915 106.568 20.8068 106.576 21.2159C106.568 21.5057 106.691 21.7741 106.947 22.0213C107.211 22.2685 107.718 22.4602 108.468 22.5966L112.457 23.3125C114.468 23.679 115.964 24.2969 116.944 25.1662C117.933 26.027 118.431 27.1818 118.44 28.6307C118.431 30.0284 118.014 31.2429 117.187 32.2741C116.369 33.2969 115.248 34.0895 113.825 34.652C112.41 35.206 110.795 35.483 108.98 35.483C105.98 35.483 103.632 34.8693 101.936 33.642C100.248 32.4148 99.3061 30.7955 99.1101 28.7841H106.116C106.21 29.4062 106.517 29.8878 107.036 30.2287C107.565 30.5611 108.23 30.7273 109.031 30.7273C109.678 30.7273 110.211 30.6165 110.629 30.3949C111.055 30.1733 111.272 29.858 111.281 29.4489C111.272 29.0739 111.085 28.7756 110.718 28.554C110.36 28.3324 109.798 28.1534 109.031 28.017L105.553 27.4034C103.551 27.054 102.051 26.3892 101.053 25.4091C100.056 24.429 99.5618 23.1676 99.5703 21.625C99.5618 20.2614 99.9197 19.1065 100.644 18.1605C101.377 17.206 102.421 16.4815 103.776 15.9872C105.14 15.4844 106.755 15.233 108.622 15.233C111.46 15.233 113.697 15.821 115.333 16.9972C116.978 18.1733 117.843 19.8011 117.928 21.8807ZM132.854 15.4886V20.6023H119.916V15.4886H132.854ZM122.422 10.7841H129.479V28.8097C129.479 29.0824 129.526 29.3125 129.62 29.5C129.713 29.679 129.858 29.8153 130.054 29.9091C130.25 29.9943 130.502 30.0369 130.808 30.0369C131.021 30.0369 131.269 30.0114 131.55 29.9602C131.84 29.9091 132.053 29.8665 132.189 29.8324L133.212 34.7926C132.896 34.8864 132.445 35.0014 131.857 35.1378C131.277 35.2741 130.587 35.3636 129.786 35.4062C128.166 35.4915 126.807 35.3253 125.708 34.9077C124.608 34.4815 123.781 33.8125 123.227 32.9006C122.673 31.9886 122.405 30.8466 122.422 29.4744V10.7841ZM143.212 24.0795V35.125H136.155V8.94318H142.957V19.2216H143.161C143.604 17.9687 144.341 16.9929 145.373 16.294C146.404 15.5866 147.644 15.233 149.093 15.233C150.482 15.233 151.688 15.5483 152.711 16.179C153.742 16.8097 154.539 17.679 155.101 18.7869C155.672 19.8949 155.954 21.1648 155.945 22.5966V35.125H148.888V24.0795C148.897 23.108 148.654 22.3452 148.16 21.7912C147.674 21.2372 146.979 20.9602 146.076 20.9602C145.505 20.9602 145.002 21.0881 144.567 21.3438C144.141 21.5909 143.809 21.9489 143.57 22.4176C143.34 22.8778 143.221 23.4318 143.212 24.0795ZM168.838 35.483C166.741 35.483 164.934 35.0824 163.417 34.2812C161.909 33.4716 160.746 32.3125 159.927 30.804C159.118 29.2869 158.713 27.4716 158.713 25.358C158.713 23.3295 159.122 21.5568 159.94 20.0398C160.758 18.5227 161.913 17.3423 163.405 16.4986C164.896 15.6548 166.656 15.233 168.684 15.233C170.167 15.233 171.51 15.4631 172.711 15.9233C173.913 16.3835 174.94 17.0526 175.792 17.9304C176.645 18.7997 177.301 19.8565 177.761 21.1009C178.221 22.3452 178.452 23.7472 178.452 25.3068V26.9432H160.912V23.0568H171.957C171.949 22.4943 171.804 22 171.523 21.5739C171.25 21.1392 170.879 20.8026 170.41 20.5639C169.95 20.3168 169.426 20.1932 168.838 20.1932C168.267 20.1932 167.743 20.3168 167.265 20.5639C166.788 20.8026 166.405 21.1349 166.115 21.5611C165.834 21.9872 165.684 22.4858 165.667 23.0568V27.25C165.667 27.8807 165.8 28.4432 166.064 28.9375C166.328 29.4318 166.707 29.8196 167.202 30.1009C167.696 30.3821 168.292 30.5227 168.991 30.5227C169.477 30.5227 169.92 30.4545 170.321 30.3182C170.73 30.1818 171.079 29.9858 171.369 29.7301C171.659 29.4659 171.872 29.1506 172.008 28.7841H178.452C178.23 30.1477 177.706 31.3324 176.879 32.3381C176.052 33.3352 174.957 34.1108 173.594 34.6648C172.238 35.2102 170.653 35.483 168.838 35.483ZM193.041 15.4886V20.6023H180.104V15.4886H193.041ZM182.61 10.7841H189.666V28.8097C189.666 29.0824 189.713 29.3125 189.807 29.5C189.901 29.679 190.046 29.8153 190.242 29.9091C190.438 29.9943 190.689 30.0369 190.996 30.0369C191.209 30.0369 191.456 30.0114 191.737 29.9602C192.027 29.9091 192.24 29.8665 192.377 29.8324L193.399 34.7926C193.084 34.8864 192.632 35.0014 192.044 35.1378C191.465 35.2741 190.774 35.3636 189.973 35.4062C188.354 35.4915 186.995 35.3253 185.895 34.9077C184.796 34.4815 183.969 33.8125 183.415 32.9006C182.861 31.9886 182.593 30.8466 182.61 29.4744V10.7841ZM195.921 35.125V15.4886H202.978V35.125H195.921ZM199.449 13.4432C198.495 13.4432 197.677 13.1278 196.995 12.4972C196.313 11.8665 195.972 11.108 195.972 10.2216C195.972 9.33523 196.313 8.5767 196.995 7.94602C197.677 7.31534 198.495 7 199.449 7C200.412 7 201.231 7.31534 201.904 7.94602C202.586 8.5767 202.927 9.33523 202.927 10.2216C202.927 11.108 202.586 11.8665 201.904 12.4972C201.231 13.1278 200.412 13.4432 199.449 13.4432ZM216.034 35.483C213.903 35.483 212.079 35.0611 210.562 34.2173C209.045 33.3651 207.882 32.1804 207.072 30.6634C206.262 29.1378 205.857 27.3693 205.857 25.358C205.857 23.3466 206.262 21.5824 207.072 20.0653C207.882 18.5398 209.045 17.3551 210.562 16.5114C212.079 15.6591 213.903 15.233 216.034 15.233C217.96 15.233 219.626 15.5824 221.032 16.2812C222.447 16.9716 223.542 17.9517 224.318 19.2216C225.093 20.483 225.485 21.9659 225.494 23.6705H218.948C218.855 22.6392 218.556 21.8551 218.053 21.3182C217.559 20.7727 216.92 20.5 216.136 20.5C215.522 20.5 214.985 20.679 214.525 21.0369C214.065 21.3864 213.707 21.919 213.451 22.6349C213.195 23.3423 213.068 24.233 213.068 25.3068C213.068 26.3807 213.195 27.2756 213.451 27.9915C213.707 28.6989 214.065 29.2315 214.525 29.5895C214.985 29.9389 215.522 30.1136 216.136 30.1136C216.656 30.1136 217.116 29.9943 217.517 29.7557C217.917 29.5085 218.241 29.1506 218.488 28.6818C218.744 28.2045 218.897 27.625 218.948 26.9432H225.494C225.468 28.6733 225.072 30.1818 224.305 31.4688C223.538 32.7472 222.451 33.7358 221.045 34.4347C219.647 35.1335 217.977 35.483 216.034 35.483ZM249.589 17.125C249.52 16.2727 249.201 15.608 248.63 15.1307C248.067 14.6534 247.211 14.4148 246.06 14.4148C245.327 14.4148 244.726 14.5043 244.258 14.6832C243.797 14.8537 243.457 15.0881 243.235 15.3864C243.013 15.6847 242.898 16.0256 242.89 16.4091C242.873 16.7244 242.928 17.0099 243.056 17.2656C243.192 17.5128 243.405 17.7386 243.695 17.9432C243.985 18.1392 244.356 18.3182 244.807 18.4801C245.259 18.642 245.796 18.7869 246.418 18.9148L248.566 19.375C250.015 19.6818 251.255 20.0866 252.286 20.5895C253.317 21.0923 254.161 21.6847 254.817 22.3665C255.474 23.0398 255.955 23.7983 256.262 24.642C256.577 25.4858 256.739 26.4062 256.748 27.4034C256.739 29.125 256.309 30.5824 255.457 31.7756C254.604 32.9688 253.385 33.8764 251.8 34.4986C250.224 35.1207 248.327 35.4318 246.111 35.4318C243.836 35.4318 241.85 35.0952 240.154 34.4219C238.466 33.7486 237.154 32.7131 236.216 31.3153C235.287 29.9091 234.819 28.1108 234.81 25.9205H241.56C241.603 26.7216 241.803 27.3949 242.161 27.9403C242.519 28.4858 243.022 28.8991 243.67 29.1804C244.326 29.4616 245.106 29.6023 246.009 29.6023C246.768 29.6023 247.403 29.5085 247.914 29.321C248.425 29.1335 248.813 28.8736 249.077 28.5412C249.341 28.2088 249.478 27.8295 249.486 27.4034C249.478 27.0028 249.346 26.6534 249.09 26.3551C248.843 26.0483 248.434 25.7756 247.863 25.5369C247.292 25.2898 246.52 25.0597 245.549 24.8466L242.941 24.2841C240.623 23.7812 238.795 22.9418 237.457 21.7656C236.127 20.581 235.466 18.9659 235.475 16.9205C235.466 15.2585 235.91 13.8054 236.805 12.5611C237.708 11.3082 238.957 10.3324 240.55 9.63352C242.153 8.93466 243.989 8.58523 246.06 8.58523C248.174 8.58523 250.002 8.93892 251.545 9.64631C253.087 10.3537 254.276 11.3509 255.111 12.6378C255.955 13.9162 256.381 15.4119 256.39 17.125H249.589ZM259.554 42.4886V15.4886H266.559V18.9148H266.713C266.969 18.25 267.344 17.6406 267.838 17.0866C268.332 16.5241 268.946 16.0767 269.679 15.7443C270.412 15.4034 271.264 15.233 272.236 15.233C273.531 15.233 274.763 15.5781 275.93 16.2685C277.106 16.9588 278.061 18.0455 278.794 19.5284C279.535 21.0114 279.906 22.9375 279.906 25.3068C279.906 27.5739 279.552 29.4531 278.845 30.9446C278.146 32.4361 277.209 33.5483 276.032 34.2812C274.865 35.0142 273.582 35.3807 272.184 35.3807C271.264 35.3807 270.442 35.2315 269.717 34.9332C269.001 34.6264 268.388 34.2131 267.876 33.6932C267.373 33.1648 266.986 32.5682 266.713 31.9034H266.611V42.4886H259.554ZM266.457 25.3068C266.457 26.2614 266.581 27.0881 266.828 27.7869C267.084 28.4773 267.442 29.0142 267.902 29.3977C268.371 29.7727 268.929 29.9602 269.577 29.9602C270.224 29.9602 270.774 29.777 271.226 29.4105C271.686 29.0355 272.035 28.5028 272.274 27.8125C272.521 27.1136 272.645 26.2784 272.645 25.3068C272.645 24.3352 272.521 23.5043 272.274 22.8139C272.035 22.1151 271.686 21.5824 271.226 21.2159C270.774 20.8409 270.224 20.6534 269.577 20.6534C268.929 20.6534 268.371 20.8409 267.902 21.2159C267.442 21.5824 267.084 22.1151 266.828 22.8139C266.581 23.5043 266.457 24.3352 266.457 25.3068ZM288.334 35.4318C287.081 35.4318 285.973 35.2273 285.01 34.8182C284.056 34.4006 283.306 33.7699 282.76 32.9261C282.215 32.0824 281.942 31.0085 281.942 29.7045C281.942 28.6307 282.125 27.7145 282.492 26.956C282.858 26.1889 283.37 25.5625 284.026 25.0767C284.682 24.5909 285.445 24.2202 286.314 23.9645C287.192 23.7088 288.138 23.5426 289.152 23.4659C290.252 23.3807 291.134 23.2784 291.798 23.1591C292.472 23.0312 292.958 22.8565 293.256 22.6349C293.554 22.4048 293.703 22.1023 293.703 21.7273V21.6761C293.703 21.1648 293.507 20.7727 293.115 20.5C292.723 20.2273 292.22 20.0909 291.607 20.0909C290.933 20.0909 290.384 20.2401 289.958 20.5384C289.54 20.8281 289.289 21.2756 289.203 21.8807H282.709C282.794 20.6875 283.173 19.5881 283.847 18.5824C284.529 17.5682 285.521 16.7585 286.825 16.1534C288.129 15.5398 289.757 15.233 291.709 15.233C293.115 15.233 294.377 15.3991 295.493 15.7315C296.61 16.0554 297.56 16.5114 298.344 17.0994C299.128 17.679 299.725 18.3608 300.134 19.1449C300.551 19.9205 300.76 20.7642 300.76 21.6761V35.125H294.164V32.3636H294.01C293.618 33.0966 293.141 33.6889 292.578 34.1406C292.024 34.5923 291.389 34.9205 290.673 35.125C289.966 35.3295 289.186 35.4318 288.334 35.4318ZM290.635 30.983C291.172 30.983 291.675 30.8722 292.144 30.6506C292.621 30.429 293.009 30.1094 293.307 29.6918C293.605 29.2741 293.754 28.767 293.754 28.1705V26.5341C293.567 26.6108 293.367 26.6832 293.154 26.7514C292.949 26.8196 292.727 26.8835 292.489 26.9432C292.259 27.0028 292.012 27.0582 291.747 27.1094C291.492 27.1605 291.223 27.2074 290.942 27.25C290.396 27.3352 289.949 27.4759 289.6 27.6719C289.259 27.8594 289.003 28.0938 288.833 28.375C288.671 28.6477 288.59 28.9545 288.59 29.2955C288.59 29.8409 288.781 30.2585 289.165 30.5483C289.548 30.8381 290.039 30.983 290.635 30.983ZM313.592 35.483C311.461 35.483 309.638 35.0611 308.121 34.2173C306.604 33.3651 305.44 32.1804 304.631 30.6634C303.821 29.1378 303.416 27.3693 303.416 25.358C303.416 23.3466 303.821 21.5824 304.631 20.0653C305.44 18.5398 306.604 17.3551 308.121 16.5114C309.638 15.6591 311.461 15.233 313.592 15.233C315.518 15.233 317.184 15.5824 318.591 16.2812C320.006 16.9716 321.101 17.9517 321.876 19.2216C322.652 20.483 323.044 21.9659 323.052 23.6705H316.507C316.413 22.6392 316.115 21.8551 315.612 21.3182C315.118 20.7727 314.479 20.5 313.694 20.5C313.081 20.5 312.544 20.679 312.084 21.0369C311.623 21.3864 311.265 21.919 311.01 22.6349C310.754 23.3423 310.626 24.233 310.626 25.3068C310.626 26.3807 310.754 27.2756 311.01 27.9915C311.265 28.6989 311.623 29.2315 312.084 29.5895C312.544 29.9389 313.081 30.1136 313.694 30.1136C314.214 30.1136 314.675 29.9943 315.075 29.7557C315.476 29.5085 315.8 29.1506 316.047 28.6818C316.302 28.2045 316.456 27.625 316.507 26.9432H323.052C323.027 28.6733 322.631 30.1818 321.863 31.4688C321.096 32.7472 320.01 33.7358 318.604 34.4347C317.206 35.1335 315.535 35.483 313.592 35.483ZM335.373 35.483C333.276 35.483 331.47 35.0824 329.953 34.2812C328.444 33.4716 327.281 32.3125 326.463 30.804C325.653 29.2869 325.248 27.4716 325.248 25.358C325.248 23.3295 325.657 21.5568 326.475 20.0398C327.294 18.5227 328.448 17.3423 329.94 16.4986C331.431 15.6548 333.191 15.233 335.22 15.233C336.703 15.233 338.045 15.4631 339.247 15.9233C340.448 16.3835 341.475 17.0526 342.328 17.9304C343.18 18.7997 343.836 19.8565 344.296 21.1009C344.757 22.3452 344.987 23.7472 344.987 25.3068V26.9432H327.447V23.0568H338.492C338.484 22.4943 338.339 22 338.058 21.5739C337.785 21.1392 337.414 20.8026 336.945 20.5639C336.485 20.3168 335.961 20.1932 335.373 20.1932C334.802 20.1932 334.278 20.3168 333.801 20.5639C333.323 20.8026 332.94 21.1349 332.65 21.5611C332.369 21.9872 332.22 22.4858 332.203 23.0568V27.25C332.203 27.8807 332.335 28.4432 332.599 28.9375C332.863 29.4318 333.242 29.8196 333.737 30.1009C334.231 30.3821 334.828 30.5227 335.526 30.5227C336.012 30.5227 336.455 30.4545 336.856 30.3182C337.265 30.1818 337.615 29.9858 337.904 29.7301C338.194 29.4659 338.407 29.1506 338.544 28.7841H344.987C344.765 30.1477 344.241 31.3324 343.414 32.3381C342.588 33.3352 341.492 34.1108 340.129 34.6648C338.774 35.2102 337.188 35.483 335.373 35.483Z" fill="white"/>
<path d="M23.8111 20.937V9H34.6336C35.5925 9 36.3936 9.32739 37.037 9.98217C37.6805 10.637 38.0015 11.454 38.0001 12.4334V20.937H23.8111ZM3.36655 35C2.40769 35 1.60656 34.6726 0.963154 34.0178C0.319746 33.363 -0.00126309 32.546 0.000126563 31.5666V12.4334C0.000126563 11.4554 0.321135 10.6384 0.963154 9.98217C1.60517 9.32597 2.4063 8.99858 3.36655 9H21.7266V35H3.36655ZM23.8111 35V23.063H38.0001V31.5666C38.0001 32.5446 37.6791 33.3616 37.037 34.0178C36.395 34.674 35.5939 35.0014 34.6336 35H23.8111Z" fill="white"/>
</svg>
