<svg width="345" height="44" fill="none" xmlns="http://www.w3.org/2000/svg"><path d="M57.67 35.125H50l8.642-26.182h9.716L77 35.125h-7.67l-5.728-18.972h-.204L57.67 35.125zm-1.431-10.33h14.42v5.319H56.24v-5.319zm31.247 10.688c-2.097 0-3.903-.4-5.42-1.202a8.42 8.42 0 01-3.49-3.477c-.81-1.517-1.215-3.332-1.215-5.446 0-2.029.41-3.801 1.227-5.318a8.77 8.77 0 013.465-3.541c1.491-.844 3.251-1.266 5.28-1.266 1.483 0 2.825.23 4.027.69a8.437 8.437 0 013.08 2.007c.853.87 1.51 1.927 1.97 3.17.46 1.245.69 2.647.69 4.207v1.636H79.56v-3.886h11.046c-.01-.563-.154-1.057-.435-1.483a2.77 2.77 0 00-1.112-1.01c-.46-.247-.985-.37-1.573-.37a3.37 3.37 0 00-1.572.37c-.478.239-.861.57-1.15.997-.282.426-.431.925-.448 1.496v4.193c0 .63.132 1.193.396 1.688.264.494.644.882 1.138 1.163.494.281 1.09.422 1.79.422.485 0 .928-.069 1.33-.205a2.979 2.979 0 001.047-.588 2.4 2.4 0 00.64-.946H97.1c-.222 1.364-.746 2.548-1.573 3.554-.826.997-1.921 1.773-3.285 2.327-1.355.545-2.94.818-4.756.818zm30.442-13.602h-6.494a1.788 1.788 0 00-.422-1.036 2.366 2.366 0 00-.959-.665 3.251 3.251 0 00-1.278-.242c-.605 0-1.125.11-1.56.332-.434.221-.647.537-.639.946-.008.29.115.558.371.805.264.247.771.44 1.521.576l3.989.715c2.011.367 3.507.985 4.487 1.854.989.861 1.487 2.016 1.496 3.465-.009 1.397-.426 2.612-1.253 3.643-.818 1.023-1.939 1.816-3.362 2.378-1.415.554-3.03.831-4.845.831-3 0-5.348-.614-7.044-1.841-1.688-1.227-2.63-2.847-2.826-4.858h7.006c.094.622.401 1.104.92 1.445.529.332 1.194.498 1.995.498.647 0 1.18-.11 1.598-.332.426-.222.643-.537.652-.946-.009-.375-.196-.673-.563-.895-.358-.222-.92-.4-1.687-.537l-3.478-.614c-2.002-.349-3.502-1.014-4.5-1.994-.997-.98-1.491-2.241-1.483-3.784-.008-1.364.35-2.518 1.074-3.465.733-.954 1.777-1.678 3.132-2.173 1.364-.503 2.979-.754 4.846-.754 2.838 0 5.075.588 6.711 1.764 1.645 1.176 2.51 2.804 2.595 4.884zm14.926-6.392v5.113h-12.938V15.49h12.938zm-10.432-4.705h7.057V28.81c0 .272.047.503.141.69a.918.918 0 00.434.41c.196.084.448.127.754.127.213 0 .461-.026.742-.077.29-.05.503-.094.639-.128l1.023 4.96c-.316.094-.767.21-1.355.346-.58.136-1.27.226-2.071.268-1.62.086-2.979-.08-4.078-.498-1.1-.427-1.927-1.096-2.481-2.007-.554-.912-.822-2.054-.805-3.427v-18.69zm20.79 13.295v11.046h-7.057V8.943h6.802v10.279h.204c.443-1.253 1.18-2.23 2.212-2.928 1.031-.707 2.271-1.061 3.72-1.061 1.389 0 2.595.315 3.618.946a6.367 6.367 0 012.39 2.608c.571 1.108.853 2.378.844 3.81v12.528h-7.057V24.079c.009-.971-.234-1.734-.728-2.288-.486-.554-1.181-.83-2.084-.83-.571 0-1.074.127-1.509.383a2.54 2.54 0 00-.997 1.074c-.23.46-.349 1.014-.358 1.662zm25.626 11.404c-2.097 0-3.904-.4-5.421-1.202a8.428 8.428 0 01-3.49-3.477c-.809-1.517-1.214-3.332-1.214-5.446 0-2.029.409-3.801 1.227-5.318a8.767 8.767 0 013.465-3.541c1.491-.844 3.251-1.266 5.279-1.266 1.483 0 2.826.23 4.027.69a8.432 8.432 0 013.081 2.007c.853.87 1.509 1.927 1.969 3.17.46 1.245.691 2.647.691 4.207v1.636h-17.54v-3.886h11.045c-.008-.563-.153-1.057-.434-1.483a2.771 2.771 0 00-1.113-1.01c-.46-.247-.984-.37-1.572-.37-.571 0-1.095.123-1.573.37-.477.239-.86.57-1.15.997-.281.426-.431.925-.448 1.496v4.193c0 .63.133 1.193.397 1.688a2.87 2.87 0 001.138 1.163c.494.281 1.09.422 1.789.422.486 0 .929-.069 1.33-.205a2.995 2.995 0 001.048-.588c.29-.264.503-.58.639-.946h6.444c-.222 1.364-.746 2.548-1.573 3.554-.827.997-1.922 1.773-3.285 2.327-1.356.545-2.941.818-4.756.818zm24.203-19.994v5.113h-12.937V15.49h12.937zm-10.431-4.705h7.056V28.81c0 .272.047.503.141.69a.925.925 0 00.435.41c.196.084.447.127.754.127.213 0 .46-.026.741-.077.29-.05.503-.094.64-.128l1.022 4.96c-.315.094-.767.21-1.355.346-.579.136-1.27.226-2.071.268-1.619.086-2.978-.08-4.078-.498-1.099-.427-1.926-1.096-2.48-2.007-.554-.912-.822-2.054-.805-3.427v-18.69zm13.311 24.341V15.489h7.057v19.636h-7.057zm3.528-21.682c-.954 0-1.772-.315-2.454-.946-.682-.63-1.023-1.389-1.023-2.275 0-.887.341-1.645 1.023-2.276.682-.63 1.5-.946 2.454-.946.963 0 1.782.315 2.455.946.682.63 1.023 1.39 1.023 2.276 0 .886-.341 1.645-1.023 2.275-.673.63-1.492.946-2.455.946zm16.585 22.04c-2.131 0-3.955-.422-5.472-1.266a8.706 8.706 0 01-3.49-3.554c-.81-1.525-1.215-3.294-1.215-5.305 0-2.011.405-3.776 1.215-5.293a8.605 8.605 0 013.49-3.554c1.517-.852 3.341-1.278 5.472-1.278 1.926 0 3.592.35 4.998 1.048 1.415.69 2.51 1.67 3.286 2.94.775 1.262 1.167 2.745 1.176 4.45h-6.546c-.093-1.032-.392-1.816-.895-2.353-.494-.545-1.133-.818-1.917-.818-.614 0-1.151.179-1.611.537-.46.35-.818.882-1.074 1.598-.256.707-.383 1.598-.383 2.672s.127 1.969.383 2.684c.256.708.614 1.24 1.074 1.599.46.349.997.524 1.611.524.52 0 .98-.12 1.381-.358.4-.247.724-.605.971-1.074.256-.477.409-1.057.46-1.739h6.546c-.026 1.73-.422 3.239-1.189 4.526-.767 1.278-1.854 2.267-3.26 2.966-1.398.698-3.068 1.048-5.011 1.048zm33.555-18.358c-.069-.852-.388-1.517-.959-1.994-.563-.478-1.419-.716-2.57-.716-.733 0-1.334.09-1.802.268-.461.17-.801.405-1.023.703-.222.299-.337.64-.345 1.023-.017.315.038.6.166.857.136.247.349.473.639.677.29.196.661.375 1.112.537.452.162.989.307 1.611.435l2.148.46c1.449.307 2.689.712 3.72 1.215 1.031.502 1.875 1.095 2.531 1.776a6.333 6.333 0 011.445 2.276c.315.844.477 1.764.486 2.761-.009 1.722-.439 3.18-1.291 4.373-.853 1.193-2.072 2.1-3.657 2.723-1.576.622-3.473.933-5.689.933-2.275 0-4.261-.337-5.957-1.01-1.688-.673-3-1.709-3.938-3.107-.929-1.406-1.397-3.204-1.406-5.395h6.75c.043.802.243 1.475.601 2.02.358.546.861.96 1.509 1.24.656.282 1.436.422 2.339.422.759 0 1.394-.093 1.905-.281.511-.188.899-.447 1.163-.78.264-.332.401-.712.409-1.138-.008-.4-.14-.75-.396-1.048-.247-.307-.656-.58-1.227-.818-.571-.247-1.343-.477-2.314-.69l-2.608-.563c-2.318-.503-4.146-1.342-5.484-2.518-1.33-1.185-1.991-2.8-1.982-4.845-.009-1.662.435-3.116 1.33-4.36.903-1.253 2.152-2.229 3.745-2.927 1.603-.7 3.439-1.049 5.51-1.049 2.114 0 3.942.354 5.485 1.061 1.542.708 2.731 1.705 3.566 2.992.844 1.278 1.27 2.774 1.279 4.487h-6.801zm9.965 25.364v-27h7.005v3.426h.154a5.939 5.939 0 011.125-1.828 5.355 5.355 0 011.841-1.343c.733-.34 1.585-.511 2.557-.511 1.295 0 2.527.345 3.694 1.035 1.176.69 2.131 1.777 2.864 3.26.741 1.483 1.112 3.41 1.112 5.779 0 2.267-.354 4.146-1.061 5.638-.699 1.491-1.636 2.603-2.813 3.336a7.093 7.093 0 01-3.848 1.1c-.92 0-1.742-.15-2.467-.448a5.702 5.702 0 01-1.841-1.24 5.734 5.734 0 01-1.163-1.79h-.102V42.49h-7.057zm6.903-17.182c0 .954.124 1.781.371 2.48.256.69.614 1.227 1.074 1.61.469.376 1.027.563 1.675.563.647 0 1.197-.183 1.649-.55.46-.375.809-.907 1.048-1.598.247-.698.371-1.534.371-2.505 0-.972-.124-1.803-.371-2.493-.239-.699-.588-1.232-1.048-1.598-.452-.375-1.002-.563-1.649-.563-.648 0-1.206.188-1.675.563-.46.366-.818.9-1.074 1.598-.247.69-.371 1.521-.371 2.493zm21.877 10.125c-1.253 0-2.361-.205-3.324-.614a5.003 5.003 0 01-2.25-1.892c-.545-.844-.818-1.918-.818-3.222 0-1.073.183-1.99.55-2.748a4.948 4.948 0 011.534-1.88 7.24 7.24 0 012.288-1.111 13.877 13.877 0 012.838-.5c1.1-.084 1.982-.187 2.646-.306.674-.128 1.16-.302 1.458-.524.298-.23.447-.533.447-.908v-.05c0-.512-.196-.904-.588-1.177-.392-.273-.895-.41-1.508-.41-.674 0-1.223.15-1.649.448-.418.29-.669.738-.755 1.343h-6.494a6.683 6.683 0 011.138-3.299c.682-1.014 1.674-1.823 2.978-2.429 1.304-.613 2.932-.92 4.884-.92 1.406 0 2.668.166 3.784.498 1.117.324 2.067.78 2.851 1.368.784.58 1.381 1.262 1.79 2.046.417.776.626 1.62.626 2.531v13.449h-6.596v-2.761h-.154c-.392.733-.869 1.325-1.432 1.777a5.268 5.268 0 01-1.905.984 8.4 8.4 0 01-2.339.307zm2.301-4.449c.537 0 1.04-.11 1.509-.332a2.906 2.906 0 001.163-.96c.298-.417.447-.924.447-1.52v-1.637c-.187.077-.387.15-.6.217a12.153 12.153 0 01-1.407.358c-.255.051-.524.098-.805.141-.546.085-.993.226-1.342.422-.341.187-.597.422-.767.703a1.77 1.77 0 00-.243.92c0 .546.191.963.575 1.253.383.29.874.435 1.47.435zm22.957 4.5c-2.131 0-3.954-.422-5.471-1.266a8.7 8.7 0 01-3.49-3.554c-.81-1.525-1.215-3.294-1.215-5.305 0-2.011.405-3.776 1.215-5.293a8.599 8.599 0 013.49-3.554c1.517-.852 3.34-1.278 5.471-1.278 1.926 0 3.592.35 4.999 1.048 1.415.69 2.51 1.67 3.285 2.94.776 1.262 1.168 2.745 1.176 4.45h-6.545c-.094-1.032-.392-1.816-.895-2.353-.494-.545-1.133-.818-1.918-.818-.613 0-1.15.179-1.61.537-.461.35-.819.882-1.074 1.598-.256.707-.384 1.598-.384 2.672s.128 1.969.384 2.684c.255.708.613 1.24 1.074 1.599.46.349.997.524 1.61.524.52 0 .981-.12 1.381-.358.401-.247.725-.605.972-1.074.255-.477.409-1.057.46-1.739h6.545c-.025 1.73-.421 3.239-1.189 4.526-.767 1.278-1.853 2.267-3.259 2.966-1.398.698-3.069 1.048-5.012 1.048zm21.781 0c-2.097 0-3.903-.4-5.42-1.202a8.416 8.416 0 01-3.49-3.477c-.81-1.517-1.215-3.332-1.215-5.446 0-2.029.409-3.801 1.227-5.318a8.773 8.773 0 013.465-3.541c1.491-.844 3.251-1.266 5.28-1.266 1.483 0 2.825.23 4.027.69a8.448 8.448 0 013.081 2.007c.852.87 1.508 1.927 1.968 3.17.461 1.245.691 2.647.691 4.207v1.636h-17.54v-3.886h11.045c-.008-.563-.153-1.057-.434-1.483a2.771 2.771 0 00-1.113-1.01c-.46-.247-.984-.37-1.572-.37-.571 0-1.095.123-1.572.37a2.969 2.969 0 00-1.151.997c-.281.426-.43.925-.447 1.496v4.193c0 .63.132 1.193.396 1.688a2.87 2.87 0 001.138 1.163c.494.281 1.091.422 1.789.422.486 0 .929-.069 1.33-.205a2.986 2.986 0 001.048-.588 2.4 2.4 0 00.64-.946h6.443c-.222 1.364-.746 2.548-1.573 3.554-.826.997-1.922 1.773-3.285 2.327-1.355.545-2.941.818-4.756.818zM23.811 20.937V9h10.823c.959 0 1.76.327 2.403.982.644.655.965 1.472.963 2.451v8.504H23.811zM3.367 35c-.96 0-1.76-.327-2.404-.982C.32 33.363 0 32.546 0 31.567V12.433c0-.978.321-1.795.963-2.45.642-.657 1.443-.984 2.404-.983h18.36v26H3.367zm20.444 0V23.063h14.19v8.504c0 .978-.322 1.795-.964 2.45-.642.657-1.443.984-2.403.983H23.81z" fill="#000"/></svg>